# xmcd CD database file
#
# Track frame offsets:
#	150
#	8875
#	17642
#	25924
#	35672
#	46330
#	68312
#	77521
#	92642
#	110356
#	130887
#	144853
#
# Disc length: 2080 seconds
#
# Revision: 0
# Processed by: cddbd v1.5.2PL0 Copyright (c) Steve Scherf et al.
# Submitted via: CDex 1.51
#
DISCID=88081e0c
DTITLE=Takoma Records C1974 - Leo Kottke/ Peter Lang/ John Fahey
DYEAR=1974
DGENRE=Blues
TTITLE0=Leo Kottke - Cripple Creek
TTITLE1=Leo Kottke - Ice Miner
TTITLE2=Leo Kottke - Red And White
TTITLE3=Leo Kottke - Anyway
TTITLE4=Peter Lang - St. Charles Shuffle
TTITLE5=Peter Lang - When Kings Come Home
TTITLE6=Peter Lang - As I Lay Sleeping
TTITLE7=Peter Lang - Thoth Song
TTITLE8=John Fahey - On The Sunny Side Of The Ocean
TTITLE9=John Fahey - Sun Flower River Blues
TTITLE10=John Fahey - Revolt Of The Dyke Brigade
TTITLE11=John Fahey - In Christ There Is No East Or West
EXTD=YEAR: 1974
EXTT0=
EXTT1=
EXTT2=
EXTT3=
EXTT4=
EXTT5=
EXTT6=
EXTT7=
EXTT8=
EXTT9=
EXTT10=
EXTT11=
PLAYORDER=
